<svg xmlns="http://www.w3.org/2000/svg" viewBox="0 0 512.002 512.002"><path d="M459.64 92.822h-43.638V36.68c0-11.718-9.532-21.251-21.25-21.251h-32.5c-11.718 0-21.25 9.533-21.25 21.251v56.142H171.001V36.68c0-11.718-9.533-21.251-21.251-21.251h-32.499C105.533 15.429 96 24.962 96 36.68v56.142H52.362C23.489 92.822 0 116.312 0 145.185l.001 3.15L0 444.212c0 28.872 23.489 52.361 52.362 52.361H459.64c28.873 0 52.362-23.489 52.362-52.361V145.185c0-28.873-23.489-52.363-52.362-52.363zM361.002 36.68c0-.667.584-1.251 1.25-1.251h32.5c.666 0 1.25.584 1.25 1.251v93.313c0 .667-.584 1.251-1.25 1.251h-32.5c-.666 0-1.25-.584-1.25-1.251V36.68zM116 36.68c0-.667.585-1.251 1.251-1.251h32.499c.666 0 1.251.584 1.251 1.251v93.313c0 .667-.585 1.251-1.251 1.251h-32.499c-.666 0-1.251-.584-1.251-1.251V36.68zm7 439.893H52.362C34.518 476.573 20 462.056 20 444.212v-71.978h103v104.339zm0-124.339H20V247.895h103v104.339zm123 124.339H143V372.234h103v104.339zm0-124.339H143V247.895h103v104.339zm123 124.339H266V372.234h103v104.339zm0-124.339H266V247.895h103v104.339zm123.002 91.978c0 17.844-14.518 32.361-32.362 32.361H389V372.234h103.002v71.978zm0-91.978H389V247.895h103.002v104.339zm0-159.44h-82.48c-5.523 0-10 4.477-10 10s4.477 10 10 10h82.48v15.101H20v-82.71c0-17.845 14.518-32.363 32.362-32.363H96v17.171c0 11.718 9.533 21.251 21.251 21.251h32.499c11.718 0 21.251-9.533 21.251-21.251v-17.171h170.001v17.171c0 11.718 9.532 21.251 21.25 21.251h32.5c11.718 0 21.25-9.533 21.25-21.251v-17.171h43.638c17.845 0 32.362 14.518 32.362 32.363v47.609z"/><path d="M380.303 192.794h-.781c-5.523 0-10 4.477-10 10 0 5.522 4.477 10 10 10h.781c5.522 0 10-4.477 10-10s-4.478-10-10-10zM473.375 272.064c-4.418-3.314-10.685-2.418-14 2l-23.082 30.774-15.594-15.595c-3.903-3.904-10.236-3.906-14.142-.001-3.906 3.905-3.906 10.236-.001 14.142l23.746 23.749a9.999 9.999 0 0 0 15.071-1.071l30.001-39.998c3.315-4.418 2.419-10.686-1.999-14zM350.377 396.403c-4.418-3.314-10.686-2.418-14 2l-23.083 30.776-15.598-15.598c-3.906-3.905-10.236-3.905-14.143 0-3.905 3.905-3.905 10.237 0 14.143l23.751 23.751a10 10 0 0 0 15.071-1.071l30.001-40c3.314-4.419 2.419-10.687-1.999-14.001zM227.375 272.064c-4.418-3.314-10.686-2.418-14 2l-23.081 30.775-15.599-15.597c-3.904-3.905-10.237-3.905-14.142.001-3.905 3.905-3.905 10.237.002 14.142l23.751 23.749a9.998 9.998 0 0 0 15.07-1.071l29.999-39.999c3.314-4.418 2.418-10.686-2-14z"/></svg>