<svg xmlns="http://www.w3.org/2000/svg" viewbox="0 0 520 520"><path d="M260.055 21.814a13.086 13.086 0 0 0-7.473 2.323L180.377 74.04H96.426c-7.242 0-13.112 5.871-13.112 13.111v53.975l-73.648 50.9c-3.623 2.504-5.583 6.507-5.645 10.6-.004.077-.021.15-.021.23l.39 284.235a13.117 13.117 0 0 0 3.852 9.265 13.119 13.119 0 0 0 9.262 3.829h.017l485.385-.668c7.24-.01 13.104-5.888 13.094-13.13l-.39-283.786c-.002-.77-.174-1.934-.473-2.604a13.07 13.07 0 0 0-5.155-7.281l-73.29-50.947V87.152c0-7.24-5.874-13.111-13.114-13.111H339.26l-71.742-49.879a13.091 13.091 0 0 0-7.463-2.348zm-.04 29.07l33.31 23.155h-66.811zm-150.478 49.382h300.93v149.92L309.43 320.428l-41.194-31.953c-.064-.05-.12-.082-.181-.127-4.604-3.454-11.117-3.58-15.895.127l-41.492 32.183-101.13-69.892zm61.697 52.447c-7.24 0-13.113 5.871-13.113 13.111s5.873 13.114 13.113 13.114H348.77c7.242 0 13.113-5.874 13.113-13.114 0-7.24-5.871-13.111-13.113-13.111zm-87.92 20.29v59.64l-43.146-29.819zm353.375.704l41.899 29.12-41.899 29.126zm-265.455 47.188c-7.24 0-13.113 5.873-13.113 13.113 0 7.24 5.873 13.111 13.113 13.111H348.77c7.242 0 13.113-5.871 13.113-13.111s-5.871-13.113-13.113-13.113zm318.186 6.34l.32 233.06L331.145 337.27zm-459.162.632l158.67 109.654-158.35 122.825zm229.941 87.559l203.59 157.922-407.914.56z"/></svg>