<?xml version="1.0" encoding="utf-8"?>
<!-- Generator: Adobe Illustrator 15.0.0, SVG Export Plug-In . SVG Version: 6.00 Build 0)  -->
<!DOCTYPE svg PUBLIC "-//W3C//DTD SVG 1.1//EN" "http://www.w3.org/Graphics/SVG/1.1/DTD/svg11.dtd">
<svg version="1.1" id="Layer_1" xmlns="http://www.w3.org/2000/svg" xmlns:xlink="http://www.w3.org/1999/xlink" x="0px" y="0px"
	 width="841.889px" height="595.281px" viewBox="0 0 841.889 595.281" enable-background="new 0 0 841.889 595.281"
	 xml:space="preserve">
<path fill="#FFFFFF" d="M347.699,61.723c-1.103,0.035-2.193,0.251-3.226,0.641c-93.581,35.294-154.037,112.809-154.037,197.492
	c0,58.939,28.196,114.031,79.364,155.221c1.754,1.44,3.841,2.132,5.953,2.222h0.409c5.533-0.011,10.01-4.503,10-10.035
	c-0.004-2.27-0.778-4.471-2.197-6.243c-2.561-4.263-13.973-24.252-25.987-60.257c-4.903-14.78-7.297-26.104-8.449-33.893
	l27.62,6.739c1.439,0.372,2.925,0.397,4.365,0.077c3.277-0.646,20.048-5.716,27.818-40.646c6.554-29.502-0.832-46.599-1.716-48.441
	c-0.402-0.864-0.924-1.668-1.549-2.388l-32.9-37.368c2.906-6.004,9.793-18.838,25.782-43.705
	c25.137-39.116,54.664-61.129,54.958-61.359c4.028-2.955,5.265-8.426,2.899-12.827c-1.81-3.319-5.329-5.343-9.108-5.235V61.723z
	 M151.916,144.999c-5.597-0.064-11.084,1.553-15.752,4.641c-15.074,10.126-17.154,33.432-4.673,52.084
	c12.52,18.646,34.872,25.591,49.946,15.478c15.08-10.114,17.154-33.426,4.672-52.071c-8.603-12.84-21.846-20.111-34.187-20.131
	H151.916z M690.785,328.927c-4.81,0.048-9.128,2.959-10.978,7.399c-1.562,3.693-39.922,91.417-178.161,115.888
	c-17.604,3.108-35.443,4.683-53.319,4.705c-83.166,0-136.485-35.499-136.979-35.845c-5.093-3.47-11.984-2.53-15.964,2.176
	c-3.975,4.701-3.747,11.647,0.525,16.079c1.165,1.203,28.894,29.7,74.147,53.37c35.621,18.602,75.575,26.5,92.313,29.163
	l16.814,57.633c1.116,3.78,4.004,6.78,7.739,8.04c0.614,0.204,14.805,4.852,34.417,4.852c6.196,0,12.322-0.448,18.274-1.376
	c32.6-5.012,47.546-17.455,49.146-18.851c2.1-1.863,3.482-4.392,3.924-7.156l10.268-65.43c8.865-7.278,31.172-26.864,51.668-55.585
	c39.365-55.073,47.77-99.073,48.089-100.897c1.114-6.025-2.497-11.921-8.372-13.665
	C693.186,329.084,691.989,328.916,690.785,328.927L690.785,328.927z M531.788,354.416c-15.452-0.108-30.494,12.898-35.416,31.928
	c-5.684,21.705,3.969,43.046,21.539,47.648c17.577,4.563,36.376-9.346,42.034-31.096c5.665-21.737-3.981-43.014-21.539-47.604
	C536.245,354.727,534.023,354.433,531.788,354.416L531.788,354.416z"/>
<path fill="#FFFFFF" d="M617.963,73.655c15.766,1.325,29.873-13.41,31.512-32.939c1.645-19.503-9.812-36.408-25.584-37.739
	c-15.747-1.331-29.893,13.429-31.493,32.938C590.734,55.431,602.179,72.323,617.963,73.655L617.963,73.655z M629.74,96.615
	C569.445,52.82,501.775,43.609,455.637,43.609c-41.067,0-69.282,7.066-70.46,7.349c-4.927,1.251-8.131,5.998-7.451,11.034
	c0.641,4.98,4.891,8.687,9.922,8.687h0.128l1.152-0.013c9.685,0,60.039,0.922,101.792,19.202
	c19.446,8.507,26.999,14.12,29.681,16.56l-6.573,60.244c-0.256,2.452,0.365,4.903,1.792,6.913
	c0.691,0.935,16.976,23.479,41.389,33.477c8.828,3.633,18.283,5.501,27.83,5.499c9.807,0,16.367-1.997,17.059-2.228
	c2.215-0.704,4.097-2.164,5.352-4.129l20.994-32.632c8.962,7.97,24.087,23.268,38.104,46.419
	c21.206,35.032,28.657,77.15,28.708,77.598c0.805,4.609,4.692,8.048,9.364,8.283h0.525c4.485-0.006,8.424-2.983,9.652-7.297
	c0.295-1.185,31.204-117.654-84.85-201.96H629.74z"/>
</svg>
