<?xml version="1.0" encoding="UTF-8"?>
<!DOCTYPE svg PUBLIC "-//W3C//DTD SVG 1.1//EN" "http://www.w3.org/Graphics/SVG/1.1/DTD/svg11.dtd">
<!-- Creator: CorelDRAW 2017 -->
<svg xmlns="http://www.w3.org/2000/svg" xml:space="preserve" width="70px" height="70px" version="1.1" style="shape-rendering:geometricPrecision; text-rendering:geometricPrecision; image-rendering:optimizeQuality; fill-rule:evenodd; clip-rule:evenodd"
viewBox="0 0 70 70"
 xmlns:xlink="http://www.w3.org/1999/xlink">
 <defs>
  <style type="text/css">
   <![CDATA[
    .fil0 {fill:#FEFEFE}
    .fil1 {fill:#344884;fill-rule:nonzero}
   ]]>
  </style>
 </defs>
 <g id="Camada_x0020_1">
  <metadata id="CorelCorpID_0Corel-Layer"/>
  <rect class="fil0" width="70" height="70" rx="16" ry="16"/>
  <path class="fil1" d="M12 39l6 0 1 3 3 0 -5 -15 -4 0 -5 15 3 0 1 -3zm3 -9l0 0 2 6 -4 0 2 -6z"/>
  <path id="1" class="fil1" d="M27 39l6 0 1 3 3 0 -5 -15 -4 0 -5 15 3 0 1 -3zm3 -9l0 0 2 6 -4 0 2 -6z"/>
  <polygon id="2" class="fil1" points="42,27 39,27 39,43 49,43 49,40 42,40 "/>
  <path id="3" class="fil1" d="M51 38c0,2 1,5 6,5 1,0 6,0 6,-5 0,-3 -2,-4 -4,-4l-4 -1c-1,0 -2,0 -2,-2 0,-1 1,-2 3,-2 3,0 3,2 3,2l3 0c0,-2 -1,-5 -6,-5 -5,0 -6,3 -6,5 0,3 2,4 5,4l2 0c2,0 3,1 3,2 0,2 -2,2 -3,2 -3,0 -3,-2 -3,-2l-3 0z"/>
 </g>
</svg>
