<svg xmlns="http://www.w3.org/2000/svg" viewBox="0 0 93 93"><path d="M35.057 9.643a1.57 1.57 0 0 0-.504.1c-14.62 5.514-24.065 17.624-24.065 30.854 0 9.208 4.405 17.815 12.399 24.25.274.225.6.333.93.347h.064a1.565 1.565 0 0 0 1.219-2.543c-.4-.666-2.183-3.789-4.06-9.414-.766-2.309-1.14-4.078-1.32-5.295l4.315 1.053c.225.058.457.062.682.012.512-.101 3.132-.893 4.346-6.35 1.024-4.609-.13-7.28-.268-7.568a1.597 1.597 0 0 0-.242-.373l-5.14-5.838c.454-.938 1.53-2.943 4.028-6.828 3.927-6.111 8.54-9.55 8.586-9.586a1.566 1.566 0 0 0 .453-2.004 1.57 1.57 0 0 0-1.423-.818zM4.47 22.653a4.37 4.37 0 0 0-2.461.725c-2.355 1.582-2.68 5.223-.73 8.137 1.956 2.913 5.448 3.998 7.803 2.418 2.356-1.58 2.68-5.222.73-8.135-1.344-2.006-3.413-3.142-5.341-3.145zm84.187 28.735a1.878 1.878 0 0 0-1.715 1.156c-.244.577-6.237 14.282-27.834 18.105a48.26 48.26 0 0 1-8.33.735c-12.993 0-21.323-5.546-21.4-5.6a1.88 1.88 0 0 0-2.494.34 1.875 1.875 0 0 0 .082 2.512c.182.188 4.514 4.64 11.584 8.338 5.565 2.906 11.807 4.14 14.422 4.556l2.627 9.004a1.89 1.89 0 0 0 1.209 1.256c.096.032 2.313.758 5.377.758.968 0 1.925-.07 2.855-.215 5.093-.783 7.428-2.727 7.678-2.945.328-.291.544-.686.613-1.118l1.604-10.222c1.385-1.137 4.87-4.197 8.072-8.684 6.15-8.604 7.463-15.478 7.513-15.763a1.872 1.872 0 0 0-1.308-2.135 1.878 1.878 0 0 0-.555-.078zm-24.84 3.982c-2.414-.017-4.764 2.015-5.533 4.988-.888 3.391.62 6.725 3.365 7.444 2.746.713 5.683-1.46 6.567-4.858.885-3.396-.622-6.72-3.365-7.437a4.211 4.211 0 0 0-1.034-.137z" fill="#7ac143"/><path d="M77.28 11.507c2.463.207 4.667-2.095 4.923-5.146C82.46 3.314 80.67.673 78.206.465c-2.46-.208-4.67 2.098-4.92 5.146-.26 3.049 1.528 5.688 3.994 5.896zm1.84 3.587c-9.42-6.842-19.992-8.281-27.2-8.281-6.416 0-10.824 1.104-11.008 1.148a1.563 1.563 0 0 0-1.164 1.724c.1.778.764 1.357 1.55 1.357h.02l.18-.002c1.513 0 9.38.144 15.903 3 3.038 1.329 4.218 2.206 4.637 2.587l-1.027 9.412c-.04.383.057.766.28 1.08.108.146 2.652 3.668 6.466 5.23a11.42 11.42 0 0 0 4.348.859c1.532 0 2.557-.312 2.665-.348.346-.11.64-.338.836-.645l3.28-5.098c1.4 1.245 3.763 3.635 5.953 7.252 3.313 5.473 4.477 12.053 4.485 12.123a1.565 1.565 0 0 0 1.463 1.294h.082a1.57 1.57 0 0 0 1.508-1.14c.046-.185 4.875-18.381-13.256-31.552z" fill="#0076c0"/></svg>