<?xml version="1.0" encoding="UTF-8"?>
<!DOCTYPE svg PUBLIC "-//W3C//DTD SVG 1.1//EN" "http://www.w3.org/Graphics/SVG/1.1/DTD/svg11.dtd">
<!-- Creator: CorelDRAW 2017 -->
<svg xmlns="http://www.w3.org/2000/svg" xml:space="preserve" width="115px" height="115px" version="1.1" style="shape-rendering:geometricPrecision; text-rendering:geometricPrecision; image-rendering:optimizeQuality; fill-rule:evenodd; clip-rule:evenodd"
viewBox="0 0 115 115"
 xmlns:xlink="http://www.w3.org/1999/xlink">
 <defs>
  <style type="text/css">
   <![CDATA[
    .fil0 {fill:#344884}
    .fil1 {fill:#FEFEFE;fill-rule:nonzero}
   ]]>
  </style>
 </defs>
 <g id="Camada_x0020_1">
  <metadata id="CorelCorpID_0Corel-Layer"/>
  <g id="_2408933623984">
   <rect class="fil0" width="115" height="115" rx="26" ry="27"/>
   <path class="fil1" d="M19 65l9 0 2 5 6 0 -9 -25 -6 0 -9 25 5 0 2 -5zm5 -14l0 0 3 10 -6 0 3 -10z"/>
   <path id="1" class="fil1" d="M44 65l9 0 2 5 6 0 -9 -25 -6 0 -9 25 5 0 2 -5zm5 -14l0 0 3 10 -6 0 3 -10z"/>
   <polygon id="2" class="fil1" points="69,45 64,45 64,70 81,70 81,65 69,65 "/>
   <path id="3" class="fil1" d="M83 62c0,3 2,8 11,8 2,0 10,-1 10,-8 0,-4 -3,-6 -6,-7l-6 -1c-1,0 -3,-1 -3,-3 0,-2 2,-3 4,-3 5,0 5,3 5,4l5 0c0,-3 -2,-8 -10,-8 -8,0 -10,5 -10,8 0,5 4,6 8,7l3 1c3,1 4,1 4,3 0,3 -3,3 -5,3 -5,0 -5,-3 -5,-4l-5 0z"/>
  </g>
 </g>
</svg>
