<svg xmlns="http://www.w3.org/2000/svg" viewbox="0 0 270 92.097"><path d="M102.656 15.799h1.8v68.845h-1.8z" fill="#95b8e1"/><path d="M131.94 16.033s.058-.234.321-.234h4.825v20.473h-3.743V22.234h-.234l-4.913 13.716s-.088.322-.38.322h-3.626c-.322 0-.38-.322-.38-.322l-4.942-13.716h-.234v14.038h-3.744V15.799h4.855c.234 0 .292.234.292.234l5.791 14.974h.321zm9.595-.234h14.507v3.275H145.28v5.118h9.446v3.364h-9.446v5.264h10.733v3.451h-14.478V15.799zm18.515 0h10.997c3.685 0 6.112 2.311 6.112 5.557v9.33c0 3.246-2.428 5.586-6.112 5.586H160.05zm13.365 6.522c0-2.72-1.285-3.247-3.304-3.247h-6.317v13.921h6.317c2.02 0 3.304-.526 3.304-3.246zm11.732 13.951h-3.743V15.799h3.743zm19.42-17.256h-8.13c-2.02 0-3.013.731-3.013 2.662v8.423c0 1.93.993 2.954 3.012 2.954h8.131l.03 3.071s-4.826.292-9.68.292c-3.658.029-5.5-2.632-5.5-5.878v-9.3c0-3.247 1.842-5.616 5.5-5.586 5.438 0 9.68.234 9.68.234zm15.943 11.845h-8.248l-1.695 5.411h-4.27s6.17-19.04 6.433-19.858c.146-.526.234-.614.995-.614h5.322c.761 0 .85.088.995.614.263.819 6.434 19.858 6.434 19.858h-4.27zm-7.34-3.685h6.404l-2.632-8.248h-1.11zm16.263-11.377h3.743v17.109h10.412v3.363h-14.155zm-110.8 47.432h-3.745V42.758h10.91c3.684 0 5.672 2.164 5.672 5.411v2.486c0 2.544-1.14 4.3-3.305 4.942l3.832 7.633h-4.007l-3.656-7.135h-5.703v7.136zm9.241-13.366v-1.023c0-1.931-.848-2.808-2.866-2.808h-6.375v6.786h6.375c2.017-.001 2.866-1.024 2.866-2.955zm7.753-7.107h14.506v3.275H139.37v5.119h9.447v3.363h-9.447v5.264h10.732v3.451h-14.476V42.758zm32.758 3.363h-8.89c-1.989 0-2.429.117-2.429 1.843v.614c0 .878.322 1.083 1.463 1.317 0 0 5.995 1.11 7.37 1.374 2.895.556 3.743 1.667 3.743 4.27v2.662c0 3.655-1.55 5.176-6.317 5.147-4.708 0-10.09-.322-10.09-.322l.028-3.188h9.623c2.34 0 3.013-.38 3.013-2.252v-1.521c0-.761-.206-1.315-1.229-1.491-1.404-.292-5.792-1.082-6.757-1.258-3.129-.555-4.679-.849-4.679-3.977v-1.727c0-3.656 1.638-5.031 6.375-5.001 4.71 0 8.804.322 8.804.322zm4.711-3.363h14.506v3.275H176.84v5.119h9.446v3.363h-9.446v5.264h10.733v3.451h-14.477V42.758zm31.238 15.062h-8.247l-1.697 5.41h-4.27s6.17-19.039 6.434-19.858c.146-.526.234-.614.994-.614h5.323c.761 0 .85.088.994.614.264.819 6.435 19.858 6.435 19.858h-4.27zm-7.342-3.684h6.405l-2.633-8.248h-1.11zM217 63.231h-3.743V42.758h10.908c3.687 0 5.675 2.164 5.675 5.411v2.486c0 2.544-1.14 4.3-3.305 4.942l3.83 7.633h-4.006l-3.655-7.135H217zm9.242-13.366v-1.023c0-1.931-.849-2.808-2.865-2.808H217v6.786h6.377c2.017-.001 2.865-1.024 2.865-2.955zm22.581-3.889h-8.13c-2.02 0-3.013.731-3.013 2.661v8.424c0 1.93.993 2.953 3.012 2.953h8.131l.03 3.071s-4.826.292-9.68.292c-3.658.029-5.5-2.632-5.5-5.879v-9.3c0-3.247 1.842-5.616 5.5-5.586 5.438 0 9.68.234 9.68.234zm3.571-3.218h3.743v8.248h10.12v-8.248H270V63.23h-3.744v-8.861h-10.119v8.861h-3.743z" fill="#0076c0"/><path d="M123.1 84.588c-2.997 0-5.585-.875-7.913-2.678l-.302-.234 1.521-2.261.346.27c1.981 1.545 4.226 2.396 6.322 2.396 2.457 0 4.172-1.1 4.172-2.675 0-1.225-1.144-2.05-3.059-2.209a162.99 162.99 0 0 0-1.116-.08c-2.063-.141-3.693-.253-5.077-.885-1.51-.725-2.338-1.932-2.338-3.4 0-2.632 2.513-4.47 6.11-4.47 2.54 0 5.055.856 7.276 2.479l.322.236-1.542 2.214-.34-.275c-1.749-1.407-3.663-2.119-5.69-2.119-2.217 0-3.412.955-3.412 1.855 0 .396.164.691.55.985.801.609 2.077.687 3.694.784.65.04 1.385.085 2.157.17 3.172.365 5.22 2.238 5.22 4.771.001 2.47-2.159 5.126-6.9 5.126zm21.093 0c-4.646 0-8.02-3.406-8.02-8.101 0-4.708 3.373-8.126 8.02-8.126 4.661 0 8.044 3.418 8.044 8.126 0 4.695-3.383 8.101-8.044 8.101zm0-13.692c-3.083 0-5.32 2.351-5.32 5.592 0 3.226 2.237 5.565 5.32 5.565 3.082 0 5.32-2.34 5.32-5.565 0-3.242-2.238-5.592-5.32-5.592zm21.176 13.692c-4.532 0-6.466-1.64-6.466-5.482V68.688h2.645v9.928c0 2.828.68 3.438 3.821 3.438 3.14 0 3.817-.609 3.817-3.438v-9.928h2.643v10.418c0 3.842-1.932 5.482-6.46 5.482zm19.561-.381h-2.644V71.194h-6.19v-2.506h15.03v2.507h-6.196zm23.982 0h-2.646v-7.202h-7.854v7.202h-2.67V68.688h2.67v5.809h7.854v-5.809h2.646zM35.05 9.191a1.57 1.57 0 0 0-.503.098c-14.62 5.516-24.065 17.627-24.065 30.857 0 9.208 4.405 17.815 12.399 24.25.274.224.6.333.931.346h.063a1.564 1.564 0 0 0 1.219-2.54c-.4-.667-2.183-3.79-4.059-9.415-.767-2.309-1.141-4.08-1.32-5.297l4.314 1.053c.225.057.457.062.682.012.512-.101 3.132-.893 4.346-6.35 1.024-4.609-.129-7.278-.268-7.566a1.597 1.597 0 0 0-.242-.375l-5.139-5.836c.453-.938 1.53-2.943 4.028-6.828 3.927-6.111 8.54-9.55 8.585-9.586a1.564 1.564 0 0 0 .452-2.004 1.57 1.57 0 0 0-1.422-.819zM4.464 22.203a4.365 4.365 0 0 0-2.46.725c-2.353 1.582-2.68 5.222-.728 8.136 1.955 2.912 5.447 3.997 7.801 2.418 2.355-1.58 2.682-5.221.73-8.134-1.343-2.006-3.415-3.142-5.343-3.145zM88.65 50.938a1.878 1.878 0 0 0-1.713 1.156c-.243.577-6.236 14.28-27.833 18.103a48.262 48.262 0 0 1-8.33.739c-12.994 0-21.326-5.546-21.403-5.6a1.88 1.88 0 0 0-2.494.338 1.875 1.875 0 0 0 .082 2.513c.182.189 4.514 4.64 11.584 8.338 5.565 2.906 11.807 4.14 14.422 4.555l2.629 9.004c.175.591.624 1.06 1.207 1.256.096.032 2.313.758 5.377.758.968 0 1.927-.071 2.857-.215 5.093-.783 7.426-2.727 7.676-2.945.328-.291.546-.687.615-1.12l1.604-10.22c1.385-1.137 4.868-4.198 8.07-8.684 6.15-8.604 7.464-15.478 7.514-15.762a1.871 1.871 0 0 0-1.307-2.136 1.878 1.878 0 0 0-.557-.078zM63.81 54.92c-2.414-.017-4.764 2.015-5.533 4.988-.888 3.391.62 6.725 3.366 7.444 2.746.712 5.684-1.46 6.568-4.858.885-3.396-.622-6.721-3.365-7.437a4.226 4.226 0 0 0-1.035-.137z" fill="#7ac143"/><path d="M77.274 11.055c2.463.207 4.667-2.095 4.923-5.146C82.454 2.862 80.665.221 78.2.013c-2.46-.208-4.669 2.098-4.92 5.146-.26 3.049 1.527 5.688 3.994 5.896zm1.84 3.587c-9.42-6.842-19.993-8.281-27.2-8.281-6.417 0-10.825 1.104-11.009 1.148a1.563 1.563 0 0 0-1.164 1.724c.1.778.764 1.357 1.55 1.357h.021l.18-.002c1.512 0 9.38.144 15.902 3 3.038 1.329 4.218 2.206 4.637 2.587l-1.027 9.412c-.04.383.057.766.281 1.08.107.146 2.651 3.668 6.465 5.231a11.42 11.42 0 0 0 4.348.858c1.532 0 2.557-.312 2.665-.348.346-.109.64-.338.836-.645l3.28-5.098c1.4 1.245 3.763 3.635 5.953 7.252 3.313 5.473 4.477 12.053 4.485 12.123a1.565 1.565 0 0 0 1.463 1.294h.082c.697 0 1.316-.463 1.508-1.14.047-.185 4.875-18.381-13.256-31.552z" fill="#0076c0"/></svg>