<svg xmlns="http://www.w3.org/2000/svg" viewBox="0 0 115 115" version="1.1"><path d="M26 0C11.596 0 0 12.042 0 27v61c0 14.958 11.596 27 26 27h63c14.404 0 26-12.042 26-27V27c0-14.958-11.596-27-26-27H26zm67 44c8 0 10 5 10 8h-5c0-1 0-4-5-4-2 0-4 1-4 3s2 3 3 3l6 1c3 1 6 3 6 7 0 7-8 8-10 8-9 0-11-5-11-8h5c0 1 0 4 5 4 2 0 5 0 5-3 0-2-1-2-4-3l-3-1c-4-1-8-2-8-7 0-3 2-8 10-8zm-72 1h6l9 25h-6l-2-5h-9l-2 5h-5l9-25zm25 0h6l9 25h-6l-2-5h-9l-2 5h-5l9-25zm18 0h5v20h12v5H64V45zm-40 6l-3 10h6l-3-10zm25 0l-3 10h6l-3-10z" fill="#344884"/></svg>