<?xml version="1.0" encoding="utf-8"?>
<svg version="1.1" xmlns="http://www.w3.org/2000/svg" xmlns:xlink="http://www.w3.org/1999/xlink" x="0px" y="0px" width="512px" height="512px" viewBox="0 0 512 512">
	<path fill="#0076C0" d="M0,221.867v170.666c0,23.527,19.141,42.666,42.667,42.666h307.2c23.526,0,42.667-19.139,42.667-42.666
		v-153.6h-17.066v153.6c0,14.113-11.486,25.6-25.601,25.6h-307.2c-14.113,0-25.6-11.486-25.6-25.6V221.865
		c0-14.113,11.486-25.6,25.6-25.6h247.467v-17.066H42.667C19.141,179.199,0,198.34,0,221.867z"/>
	<path fill="#0076C0" d="M227.294,97.357l-104.619,83.711l10.667,13.338l104.61-83.711c13.568-10.863,30.618-16.836,48-16.828
		h208.981v124.842c0,44.082-35.866,79.957-79.957,79.957H384v17.066h30.977c53.495,0,97.023-43.529,97.023-97.023V85.334
		c0-4.721-3.813-8.533-8.532-8.533H285.961C264.731,76.791,243.892,84.088,227.294,97.357z"/>
	<path fill="#0076C0" d="M201.242,290.166c0.171-5.988,2.662-11.562,7.014-15.666l121.856-114.68l-11.699-12.434L196.548,262.084
		c-7.672,7.244-12.065,17.049-12.364,27.598c-0.358,10.656,3.523,20.582,10.684,28.158c0.094,0.096,0.742,0.777,0.836,0.863
		c14.626,14.582,37.581,15.564,53.437,2.26l86.784-73.498h26.401c47.155,0.01,89.934-29.645,106.471-73.805l-15.983-5.99
		c-14.054,37.531-50.415,62.738-90.487,62.73h-29.524c-2.015,0-3.978,0.717-5.521,2.021l-89.148,75.494
		c-8.993,7.553-22.059,6.996-30.771-1.707C203.247,301.857,201.207,296.174,201.242,290.166z"/>
	<rect x="17.068" y="230.4" fill="#0076C0" width="213.333" height="17.066"/>
	<rect x="281.601" y="273.066" fill="#0076C0" width="102.399" height="17.066"/>
	<rect x="8.533" y="273.066" fill="#0076C0" width="187.733" height="17.066"/>
	<rect x="42.667" y="375.465" fill="#0076C0" width="110.934" height="17.068"/>
	<rect x="42.667" y="332.799" fill="#0076C0" width="68.268" height="17.068"/>
	<path fill="#0076C0" d="M281.601,332.799V384c0,4.709,3.813,8.533,8.532,8.533h51.201c4.719,0,8.532-3.824,8.532-8.533v-51.201
		c0-4.709-3.813-8.531-8.532-8.531h-51.201C285.414,324.267,281.601,328.09,281.601,332.799z M332.801,341.332v34.133h-34.133
		v-34.133H332.801z"/>
</svg>
