<svg xmlns="http://www.w3.org/2000/svg" viewBox="0 0 486.392 486.392"><path d="M.182 0v93.266c216.505 0 392.7 176.379 392.7 393.127h93.509C486.39 218.269 268.245 0 .18 0zM.06 165.22v93.235c60.708 0 117.767 23.743 160.751 66.758 42.924 42.894 66.637 100.227 66.637 161.178h93.66c0-177.107-144.062-321.17-321.048-321.17zm64.691 191.426C29.032 356.646 0 385.738 0 421.244c0 35.72 29.032 64.54 64.752 64.54 35.841 0 64.842-28.82 64.842-64.54-.03-35.445-29.001-64.598-64.842-64.598z" fill="#0076c0"/></svg>