<svg xmlns="http://www.w3.org/2000/svg" viewBox="0 0 508 508"><path d="M295.8 41.75c-94.7 0-177.5 62.6-203.7 153H0v16.5h204c29.2 0 53 23.8 53 53 0 29-23.5 52.7-52.5 52.9H1.9v57.3h119.2c39.7 57.6 104.2 91.8 174.7 91.8 117-.1 212.2-95.3 212.2-212.3s-95.2-212.2-212.2-212.2zm-91.8 153h-40.3c23.2-51.6 74.9-85.5 132.1-85.5 79.8 0 144.7 64.9 144.7 144.7 0 22.1-4.9 43.3-14.5 63.2h-54.7c15-12.7 24.6-31.7 24.6-52.9 0-38.3-31.1-69.4-69.4-69.4-26.4 0-49.5 14.9-61.2 36.7-11.8-22-34.9-36.8-61.3-36.8zm122.9 122.3h-1c-29-.3-52.5-23.9-52.5-52.9 0-29.2 23.8-53 53-53s53 23.8 53 53c0 29-23.5 52.7-52.5 52.9zm-61.7-20.1c4.1 7.7 9.7 14.5 16.4 20.2h-32.7c6.6-5.7 12.1-12.5 16.3-20.2zm-246.9 60.9v-24.3h398.3c-5.8 8.8-12.6 17-20.3 24.3h-378zm357.6 16.5c-23.6 15.7-51.3 24.3-80.1 24.3-28.8 0-56.5-8.6-80-24.3h160.1zm-80.1 75.3c-61.1 0-117.3-27.8-154.3-75.3h47.3c29.5 26.3 67.3 40.8 106.9 40.8 40.8 0 80.8-14.2 109.6-43 35.7-35.6 51.7-73.6 51.7-118.2 0-88.9-72.3-161.2-161.2-161.2-66.1 0-125.6 40.8-149.8 102h-36.6c25.5-80.9 100.6-136.5 186.4-136.5 107.9 0 195.7 87.8 195.7 195.7s-87.8 195.7-195.7 195.7z" fill="#0076c0"/></svg>