<svg xmlns="http://www.w3.org/2000/svg" viewBox="0 0 512 512"><path d="M86.027 0C68.53 0 54.295 14.235 54.295 31.732v2.784H30c-5.523 0-10 4.477-10 10v85.27H10c-5.523 0-10 4.476-10 10v7.614c0 77.103 55.235 141.537 128.21 155.838v90.916c0 5.523 4.478 10 10 10h10.272v19.336c0 48.805 39.705 88.51 88.51 88.51 48.805 0 88.51-39.705 88.51-88.51v-33.662c0-5.522-4.477-10-10-10s-10 4.477-10 10v33.662c0 37.776-30.733 68.512-68.51 68.512s-68.51-30.735-68.51-68.512v-19.336h10.92c5.523 0 10-4.477 10-10V303.24c72.976-14.302 128.211-78.736 128.211-155.838v-7.617c0-5.523-4.477-10-10-10h-10v-85.27c0-5.522-4.477-10-10-10H263.32v-2.783C263.32 14.235 249.085 0 231.588 0c-17.498 0-31.733 14.235-31.733 31.732v25.569c0 17.497 14.236 31.73 31.733 31.73s31.732-14.233 31.732-31.73v-2.785h14.295v75.27h-10c-5.523 0-10 4.476-10 10v7.614c0 54.483-44.325 98.809-98.808 98.809C104.324 246.209 60 201.883 60 147.4v-7.615c0-5.523-4.477-10-10-10H40v-75.27h14.295v2.786c0 17.497 14.235 31.73 31.732 31.73s31.733-14.233 31.733-31.73V31.732C117.76 14.235 103.524 0 86.027 0zm0 20c6.47 0 11.733 5.263 11.733 11.732v25.569c0 6.469-5.264 11.73-11.733 11.73s-11.732-5.261-11.732-11.73V31.732C74.295 25.263 79.558 20 86.027 20zm145.56 0c6.47 0 11.733 5.263 11.733 11.732v25.569c0 6.469-5.263 11.73-11.732 11.73-6.47 0-11.733-5.261-11.733-11.73V31.732c0-6.469 5.264-11.732 11.733-11.732zM20.02 149.785h20.003c1.273 64.416 54.069 116.422 118.784 116.422s117.512-52.006 118.785-116.422h20.002c-1.168 69.163-53.177 126.157-120.184 135.172-1.226.165-2.454.315-3.687.447-.196.021-.391.046-.588.067-1.48.152-2.967.279-4.455.383-.212.015-.423.027-.635.04-1.337.089-2.677.157-4.018.206l-.629.023a141.608 141.608 0 0 1-9.748-.02 139.41 139.41 0 0 1-4.142-.212l-.52-.034a140.74 140.74 0 0 1-4.55-.39c-.118-.012-.238-.03-.356-.041a137.31 137.31 0 0 1-3.963-.48c-66.966-9.052-118.932-66.026-120.1-135.16zm355.959 51.58c-38.861 0-70.477 31.616-70.477 70.477v43.832c0 5.523 4.477 10 10 10s10-4.477 10-10v-43.832c0-27.833 22.644-50.477 50.477-50.477s50.474 22.644 50.474 50.477v90.597c-36.374 5.146-64.445 36.47-64.445 74.24 0 41.354 33.643 74.997 74.996 74.997 41.353 0 74.996-33.643 74.996-74.996 0-38.15-28.642-69.716-65.547-74.38v-90.458c0-38.86-31.613-70.477-70.474-70.477zm-227.766 104.49c.237.016.472.022.709.036 1.265.078 2.532.141 3.805.19.4.014.802.034 1.203.046 1.62.049 3.246.08 4.879.08 1.626 0 3.245-.032 4.859-.08.424-.013.845-.033 1.27-.049 1.244-.047 2.484-.107 3.72-.183.248-.015.497-.022.746-.038v78.297h-21.191v-78.299zm167.281 36.32a9.898 9.898 0 0 0-1.943.194c-.64.13-1.271.32-1.871.57-.61.25-1.19.56-1.73.92-.55.36-1.06.78-1.52 1.24-.46.46-.88.98-1.24 1.52a10.098 10.098 0 0 0-1.69 5.55 10.098 10.098 0 0 0 1.69 5.561c.36.54.78 1.05 1.24 1.52.46.46.97.87 1.52 1.24.54.36 1.12.67 1.73.92a10.098 10.098 0 0 0 3.82.77 10.037 10.037 0 0 0 3.83-.77 10.146 10.146 0 0 0 3.24-2.16c.46-.47.88-.98 1.25-1.52a10.098 10.098 0 0 0 1.49-3.6c.13-.65.19-1.3.19-1.96 0-.65-.06-1.3-.19-1.95a10.098 10.098 0 0 0-1.49-3.6c-.37-.54-.79-1.06-1.25-1.52-.46-.461-.97-.88-1.52-1.24-.54-.36-1.12-.67-1.72-.92-.61-.25-1.24-.44-1.87-.57a9.898 9.898 0 0 0-1.966-.194zm121.51 39.509c30.325 0 54.996 24.67 54.996 54.996 0 30.325-24.671 54.996-54.996 54.996-30.325 0-54.996-24.671-54.996-54.996 0-30.325 24.67-54.996 54.996-54.996zm0 17.265c-20.804 0-37.729 16.927-37.729 37.73 0 20.805 16.925 37.73 37.729 37.73s37.728-16.925 37.728-37.73c0-20.803-16.924-37.73-37.728-37.73zm0 20c9.775 0 17.728 7.955 17.728 17.73 0 9.777-7.952 17.73-17.728 17.73-9.776 0-17.729-7.954-17.729-17.73 0-9.775 7.954-17.73 17.729-17.73z" fill="#0076c0"/></svg>